<?xml version="1.0" standalone="no"?><!DOCTYPE svg PUBLIC "-//W3C//DTD SVG 1.1//EN" "http://www.w3.org/Graphics/SVG/1.1/DTD/svg11.dtd"><svg t="1646635995984" class="icon" viewBox="0 0 1024 1024" version="1.1" xmlns="http://www.w3.org/2000/svg" p-id="5838" xmlns:xlink="http://www.w3.org/1999/xlink" width="16" height="16"><defs><style type="text/css"></style></defs><path d="M363.9296 823.1936L144.896 700.7744l259.84-464.7936 218.9824 122.368zM470.6304 114.432l24.9856-44.6976 218.9824 122.368-24.9856 44.6976z" fill="#A9ABC5" p-id="5839"></path><path d="M384 168.96l-307.2 552.96 307.2 174.08 312.32-552.96-312.32-174.08z m-20.48 655.36l-220.16-122.88 261.12-465.92L624.64 358.4l-261.12 465.92zM788.48 174.08L476.16 0 404.48 133.12l307.2 174.08 76.8-133.12zM471.04 112.64l25.6-46.08L716.8 194.56l-25.6 46.08-220.16-128zM107.52 1024L358.4 936.96l-307.2-174.08L107.52 1024z m128-97.28l-92.16 30.72-20.48-92.16 112.64 61.44zM650.24 737.28c0 15.36 10.24 25.6 25.6 25.6h271.36c15.36 0 25.6-10.24 25.6-25.6s-10.24-25.6-25.6-25.6h-271.36c-15.36 0-25.6 10.24-25.6 25.6zM947.2 896H512c-15.36 0-25.6 10.24-25.6 25.6s10.24 25.6 25.6 25.6h435.2c15.36 0 25.6-10.24 25.6-25.6s-10.24-25.6-25.6-25.6z" fill="#575A93" p-id="5840"></path></svg>