<?xml version="1.0" standalone="no"?><!DOCTYPE svg PUBLIC "-//W3C//DTD SVG 1.1//EN" "http://www.w3.org/Graphics/SVG/1.1/DTD/svg11.dtd"><svg t="1646708460377" class="icon" viewBox="0 0 1024 1024" version="1.1" xmlns="http://www.w3.org/2000/svg" p-id="3118" xmlns:xlink="http://www.w3.org/1999/xlink" width="16" height="16"><defs><style type="text/css"></style></defs><path d="M488.317516 105.982933c32.705106 3.265563 97.080398 28.441732 32.824679 61.843656-27.11819 14.093047-18.051305 62.342562-21.687955 73.165924 0 0-55.522813-47.62279-151.634263-48.554631-72.728866-0.717434-116.70676-40.316506-102.164286-83.585212C260.198166 65.583963 408.826627-47.675815 401.833704 22.278148 393.360559 106.890033 456.416432 102.791587 488.317516 105.982933z" fill="#FF87CF" p-id="3119"></path><path d="M506.414177 179.091131c7.396994-17.606001 47.589805-24.392764 31.798005-40.18044-4.234511-3.096512-34.568786-19.671717-72.106265-14.748634-13.115852 5.652887 72.106265 14.748634 3.764468 52.603598-16.781364 23.724808-58.668804 1.105014-114.863696-29.575608-152.594965-13.771439-10.419289-130.309149-10.345072-130.391613-34.54817 24.759728-92.445938 72.52683-99.010049 92.050112-14.542475 43.268707 29.439543 82.867778 102.164286 83.58109 96.11145 0.944209 151.634263 48.55463 151.634263 48.55463-5.706488-14.736264-2.313107-39.838217 6.96406-61.893135z" fill="#6E6E96" opacity=".15" p-id="3120"></path><path d="M363.537559 855.709965s73.80914 53.737474 73.80914 132.543915c0 29.427174 0 0 0 0h34.890395s24.401011-113.527784 45.375654-113.301009c0 0.008246-93.30356-19.242906-154.075189-19.242906z" fill="#FFBF00" p-id="3121"></path><path d="M551.987744 1006.230968c0 27.786146-41.289578 14.674417-92.210916 14.674416-50.929585 0-92.219163 9.866782-92.219163-14.674416 0-11.734585 41.289578-21.230281 92.219163-21.230281 50.925462-0.01237 92.210916 9.495696 92.210916 21.230281z" fill="#FFBF00" p-id="3122"></path><path d="M709.439822 613.077002c-16.797857 179.135909-151.848669 312.974505-301.676977 298.930935-149.807692-14.035323-308.401892-183.01995-240.859994-349.78218 50.150303-123.819255 24.755605-179.47401 34.84504-249.089871 13.049882-90.050367 51.069773-140.815025 135.652796-133.859211 201.137226 16.538096 388.828745 254.664418 372.039135 433.800327z" fill="#FFD9DB" p-id="3123"></path><path d="M566.060175 747.38564c-16.043314 2.803766-31.076448 26.56156-31.076447 26.56156s185.935042 97.999869 359.298491-94.062227c0 0 106.518369-132.172828-39.838216-138.044244-134.922993-5.413742-99.496585 172.547059-288.383828 205.544911z" fill="#BABADB" p-id="3124"></path><path d="M594.15556 747.913408c-12.963295 4.209772-22.623918 25.683321-22.623918 25.683321s165.628354 59.33676 286.705691-120.244453c0 0 72.720619-122.062778-49.267941-109.701469-112.459879 11.359376-62.157019 154.681297-214.813832 204.262601z" fill="#C5C5E8" p-id="3125"></path><path d="M216.888227 252.450845c-6.889843 17.498798-11.825295 37.821979-15.136213 60.689164-6.572357 45.359162 1.900788 84.805676-5.257062 141.029431 30.202332-93.270575 14.921808-144.179544 20.393275-201.718595zM424.255586 839.852194c-27.452168-6.065206-48.694819-29.872478-59.002782-43.800597-145.659768-196.750157 82.608018 111.973344-139.260584-69.149941-38.019892-47.433124-64.503111-91.765612-38.007522-196.774896-0.259761 0.643217-20.817963 31.439288-21.081847 32.090751-67.541899 166.76223 91.052301 335.746857 240.859994 349.78218 145.927775 13.664236 277.799611-112.958785 300.081304-285.089402-44.625235 133.941675-158.961163 224.62289-283.588563 212.941905z" fill="#EDB4B8" p-id="3126"></path><path d="M674.054645 685.022462s154.363812-126.169471 78.789948-265.351714c-75.553248-139.202859 233.046557-55.625893 108.662426 129.323708-93.353039 138.848265-195.09676 194.131934-223.159159 185.803099l35.706785-49.775093z" fill="#BABADB" p-id="3127"></path><path d="M335.726674 176.444046c-84.583024-6.959937-122.602915 43.808844-135.652797 133.859212-4.457163 30.746593-1.995622 58.78013-2.172918 91.147134a223.023094 223.023094 0 0 1 0.944209-7.331023c13.185947-89.848331 51.609911-176.072383 137.079419-169.128939 50.40594 4.094323 114.063799 112.769118 158.829222 136.617623 20.026311 10.66668-34.436844-116.174869 45.86219-35.879959 84.475821 77.91171 148.158418 188.610989 166.753984 287.950893 0.115449-1.146246 0.2845-2.284245 0.395825-3.438737 16.789611-179.135909-170.906031-417.262231-372.039134-433.796204z" fill="#FFF5F5" opacity=".4" p-id="3128"></path><path d="M693.408877 679.575735s118.240585-133.117038 50.595607-265.409439c-67.644978-132.31714 185.060927-68.473739 93.835452 120.623786-68.461369 141.977763-147.766715 202.328827-170.77409 195.826564l26.343031-51.040911z" fill="#C5C5E8" p-id="3129"></path><path d="M179.132219 632.24569s-13.82504-54.694053 27.406813-54.694053 83.626445-104.955682 38.568275-198.51488c0 0-112.835089 147.094636-65.975088 253.208933z" fill="#EDB4B8" p-id="3130"></path><path d="M247.585342 455.703265c0 44.307749-12.105672 80.224817-36.741705 80.224816-24.640155 0-60.763382-21.988947-60.763382-66.292573 0-44.307749 47.936152-94.148813 72.580431-94.148814 24.636032-0.004123 24.924655 35.912944 24.924656 80.216571z" fill="#FF87CF" p-id="3131"></path><path d="M695.453977 604.005994s81.185519-222.520065-80.447469-318.891275c-161.632988-96.379457 204.340941-198.185025 189.456242 66.201863-11.153216 198.502511-81.577221 316.697741-115.288384 325.212119l6.279611-72.522707z" fill="#C5C5E8" p-id="3132"></path><path d="M322.252105 619.933859s28.882913 173.487145 177.272229 225.855722l69.855006-41.466875-247.127235-184.388847z" fill="#EDB4B8" p-id="3133"></path><path d="M254.41746 317.502339c12.126288 27.328472 7.347516 57.423602-23.737178 70.085904-31.088817 12.678795-127.868223 3.921149-139.079164-11.924252 0 0 4.197403-41.025694 84.673734-82.950242 29.822999-15.532039 66.020443-2.544005 78.142608 24.78859z" fill="#FFBF00" p-id="3134"></path><path d="M645.753101 487.027104c92.285134 81.004099 147.127622 239.404509 88.945354 305.684712-58.190514 66.292573-259.933849 11.874774-352.227229-69.121078-92.289257-81.004099-72.040294-201.289784-9.174087-263.178796 89.629802-88.207303 180.179075-54.380691 272.455962 26.615162z" fill="#EDB4B8" p-id="3135"></path><path d="M604.150161 464.465033c77.915833 68.391275 124.223327 202.126791 75.099698 258.107278-44.332489 11.553165-93.183988-58.697666-109.915874-63.736199 16.736009 16.744256 48.018616 90.285389 18.175 88.153702-69.327238-4.951946-138.720447-26.231705-205.643867-93.159249-77.919956-77.919956-60.82523-159.579641-7.747465-211.836892 75.664574-74.48122 152.116676-45.919915 230.032508 22.47136z" fill="#FFD9DB" p-id="3136"></path><path d="M341.037337 291.48504m-39.256848 0a39.256847 39.256847 0 1 0 78.513695 0 39.256847 39.256847 0 1 0-78.513695 0Z" fill="#EDB4B8" opacity=".43" p-id="3137"></path><path d="M781.273956 238.493862c32.23094 51.618157 38.646616 222.301536-32.960743 358.964514-18.100784 34.527554 59.270789-189.625293-34.44509-322.94849-34.671865-49.325666-111.960974-43.940786-81.0577-67.694457 30.91152-23.770163 116.216101-19.927355 148.463533 31.678433z" fill="#6E6E96" opacity=".15" p-id="3138"></path><path d="M341.915575 292.363278m-17.865762 0a17.865762 17.865762 0 1 0 35.731524 0 17.865762 17.865762 0 1 0-35.731524 0Z" fill="#6E6E96" p-id="3139"></path><path d="M99.896967 369.557554s145.094891-15.890756 145.094891-47.866058-87.061058-59.361499-145.094891 47.866058z" fill="#FFF59F" opacity=".51" p-id="3140"></path><path d="M193.394317 403.610941s-29.117935 53.337525-5.409619 77.045841 54.376568-26.961509 46.587871-83.523365c0 0 31.059955 143.025052-29.81063 143.025052-40.419586 0-84.797429-99.187346-11.367622-136.547528z" fill="#6E6E96" opacity=".15" p-id="3141"></path></svg>