<?xml version="1.0" standalone="no"?><!DOCTYPE svg PUBLIC "-//W3C//DTD SVG 1.1//EN" "http://www.w3.org/Graphics/SVG/1.1/DTD/svg11.dtd"><svg t="1646708442215" class="icon" viewBox="0 0 1086 1024" version="1.1" xmlns="http://www.w3.org/2000/svg" p-id="2762" xmlns:xlink="http://www.w3.org/1999/xlink" width="16.96875" height="16"><defs><style type="text/css"></style></defs><path d="M79.516944 876.454956a6.003966 6.003966 0 0 1-0.440995-1.763981c-0.004594-0.078093 0.009187-0.142405 0.009187-0.220498a3.523368 3.523368 0 0 1 0.24806-1.382703c0.027562-0.078093 0.045937-0.142405 0.078093-0.215904a4.341046 4.341046 0 0 1 0.932521-1.263268l0.234278-0.215903c0.436401-0.385871 0.927927-0.753367 1.534296-1.102488l0.03675-0.027563a23.841302 23.841302 0 0 1 2.163632-1.061144l0.463964-0.202123c0.813085-0.339934 1.681294-0.689055 2.636784-1.051957l0.096467-0.03675c14.015378-5.218443 42.652503-12.889922 64.049957-54.834995 9.196587-18.025678 20.671649-25.853343 31.825152-27.966444 20.203092-10.207201 59.267915-16.891034 100.427466-14.396655 58.95095 3.569305 73.136295 22.008416 72.07515 39.48285-1.061145 17.456059-22.247288 43.006218-81.216613 39.432319-20.841616-1.258674-40.268373-5.682407-56.640319-11.626654a65.152444 65.152444 0 0 1-2.062571 2.710282c-0.463964 0.592587-0.932521 1.194362-1.428641 1.78695-0.67068 0.817679-1.364329 1.62617-2.094727 2.448442-0.67068 0.744179-1.387297 1.497546-2.108508 2.250913-0.679868 0.716617-1.336767 1.437828-2.067165 2.154445-1.437828 1.428641-2.972124 2.861875-4.607481 4.30889-0.569619 0.500713-1.203549 1.015208-1.80073 1.515921-1.272455 1.084113-2.586253 2.17282-3.978144 3.266121-0.712023 0.560431-1.451609 1.120863-2.200382 1.6767a154.669873 154.669873 0 0 1-4.639637 3.371776c-0.679868 0.477745-1.345954 0.950896-2.04879 1.437828-2.374943 1.607795-4.832572 3.210996-7.47395 4.832572-46.230995 28.24666-92.696269 20.979427-100.60662 9.297649l-0.032155-0.064312a13.840818 13.840818 0 0 1-1.180581-2.108508c-0.059718-0.137811-0.133217-0.289403-0.183748-0.431808z" fill="#E67878" p-id="2763"></path><path d="M265.396413 772.995649c-44.094925-2.673533-85.079914 10.014266-85.952717 24.268516-0.859022 14.258844 34.788089 19.514037 78.883013 22.18757 44.094925 2.682721 59.966157-0.280216 60.825179-14.534466 0.877397-14.254251-9.660551-29.25268-53.755475-31.92162zM146.212871 907.935581c-36.685287 88.947809-90.780696 79.241322-73.140888 96.724943 11.470468 11.374001 68.294535 6.711395 118.724172-39.230197 50.443418-45.927811 50.535292-79.448038 39.662004-91.38247-10.8641-11.934432-55.014149-39.386382-85.245288 33.887724z" fill="#FF8787" p-id="2764"></path><path d="M234.678342 906.80553c-4.92904 15.636954-17.547933 35.564424-42.882187 58.624797-50.43423 45.932404-107.253703 50.59501-118.724172 39.230197-5.737531-5.673219-3.858708-8.502938 2.494379-12.752111 114.952744-0.009187 94.768027-94.781808 94.768027-94.781808l64.343953 9.678925z" fill="#E67878" p-id="2765"></path><path d="M309.14681 789.445688c-81.827575 25.669595-148.128444 74.693559-140.525871 98.916138 7.593386 24.217985 87.174641 38.499798 168.993029 12.839391 81.813794-25.678782 97.335905-71.298815 89.737926-95.535175-7.597979-24.227173-36.39129-41.889949-118.205084-16.220354z" fill="#E67878" p-id="2766"></path><path d="M269.071373 806.102443c-61.059458 19.155728-110.538199 55.73536-104.86498 73.806975 5.668626 18.085396 65.046789 28.74278 126.106248 9.587051 61.064052-19.160322 72.640175-53.195044 66.966956-71.298814-5.659438-18.057834-27.157953-31.246346-88.208224-12.095212z" fill="#FF8787" p-id="2767"></path><path d="M135.059368 547.555237s0.307778 42.753564 39.933033 82.388006c39.629848 39.625255-2.480598 95.360614 108.980934 146.134778 92.397678 42.096665 92.880017-58.202177 52.014463-99.06773s-133.754757-49.533865-133.754757-86.692303c0.004594-52.009869-67.173672-130.40595-67.173673-42.762751z" fill="#E67878" p-id="2768"></path><path d="M354.422315 705.289107c-4.428327-10.643602-10.680352-20.543026-18.429923-28.28341-40.865554-40.874741-133.754757-49.533865-133.754758-86.696896 0-18.039459-8.080318-39.239384-18.641234-55.602143-19.987188 7.372888-31.54953 17.359592-26.661833 28.209911 0 0 24.328234-8.558063 30.901818 30.911006 6.578178 39.469069 108.296473 93.004046 123.285716 143.328028 7.10186 23.809146 26.974205 3.720897 43.300214-31.866496z" fill="#FF8787" p-id="2769"></path><path d="M204.47048 508.013478a58.091928 35.624142 88.957 1 0-71.23648 1.296917 58.091928 35.624142 88.957 1 0 71.23648-1.296917Z" fill="#FF8787" p-id="2770"></path><path d="M139.942471 473.729887a74.574123 74.574123 0 0 0-4.938227 15.627767c-0.032156 1.153019-0.018375 2.3336 0.055124 3.55093 0 0 3.436087 32.358021 29.514521 23.657554 26.083028-8.709655 6.173933 68.565563-24.824353 24.645199 6.670052 15.503737 17.750056 25.605283 30.130077 25.375598 19.674816-0.344527 35.146397-26.652646 34.558403-58.725859-0.395058-21.97626-8.23191-40.957428-19.449725-50.622571-19.518631-0.601775-36.878222 4.630449-45.04582 16.491382z" fill="#E67878" p-id="2771"></path><path d="M838.483433 753.555111c0 142.367945-129.77202 229.864145-289.83949 229.864145-175.079681 0-194.639655-124.553577-289.825708-229.864145-90.9966-100.661744 129.762832-257.770871 289.825708-257.770871 160.081251 0 289.83949 115.402927 289.83949 257.770871z" fill="#D8D8ED" p-id="2772"></path><path d="M348.298913 678.360839c108.627219 13.817849 189.724396 75.194272 248.528348 68.115381 107.198579-12.903703 103.50065-57.880618 142.519536-68.634469 41.081457-22.564253 91.005787 14.901962 77.555434-21.907355-43.263465-93.950349-147.044331-160.150157-268.253694-160.150156-104.097831 0-220.90643 48.826435-272.015934 122.118915-21.085082 36.331572-40.718555 46.175871 71.66631 60.457684z" fill="#E67878" p-id="2773"></path><path d="M397.754686 625.459792c78.092897 8.773967 136.386947 47.746916 178.658173 43.254277 77.068502-8.19516 74.413343-36.749598 102.471661-43.575836 29.528302-14.32775 65.414285 9.467615 55.753735-13.895942-31.103941-59.635411-105.71022-101.667764-192.843518-101.667765-74.83137 0-158.804203 31.007474-195.544614 77.523279-15.168397 23.060373-29.280243 29.303211 51.504563 38.361987zM925.093049 548.345353s-0.33534 47.365639-44.232735 91.253847c-43.901989 43.897395 2.751626 105.618346-120.70865 161.863606-102.352226 46.626053-102.880501-64.472577-57.618777-109.743488s148.151413-54.867151 148.151413-96.022107c0-57.604996 74.40875-144.439703 74.408749-47.351858z" fill="#FF8787" p-id="2774"></path><path d="M880.860314 639.590012c43.897395-43.901989 44.232735-91.249253 44.232735-91.249253 0-15.205146-1.819105-25.89928-4.901477-32.900078-21.999228 9.306836-48.486502 22.205945-48.486502 22.205945s-2.96753 26.404587 13.395229 34.186314c16.353571 7.795509 18.691765 40.516432-17.129907 55.312739-35.840046 14.800901-28.044537 93.46801-96.591726 112.159775-68.538001 18.696358-82.562567-9.338992-68.538001-42.840844 1.791543-4.272141 1.865042-5.994778 0.702836-5.691594-0.33534 0.316965-0.684461 0.633931-1.010614 0.946302-45.266318 45.266318-44.733449 156.369542 57.618777 109.748082 123.460276-56.236073 76.820442-117.979992 120.70865-161.877388z" fill="#E67878" p-id="2775"></path><path d="M870.418768 474.362144a44.581857 72.704487 16.903 1 0 85.311695 25.924554 44.581857 72.704487 16.903 1 0-85.311695-25.924554Z" fill="#FF8787" p-id="2776"></path><path d="M955.751402 500.290659c6.527647-21.452578 6.385243-42.432005 0.904959-58.041397-37.994491 9.417085-78.703859 33.364042-78.703859 33.364042s-0.799304 17.263124 38.499798 20.970239c39.216415 3.697928-37.378935 80.013063-49.460366 26.193277 3.307464 17.226374 12.007931 30.17142 24.957571 34.112815 23.561086 7.161578 52.133899-18.181864 63.801897-56.598976z" fill="#E67878" p-id="2777"></path><path d="M964.516181 292.444117c-1.300017 6.987017-6.118808 11.957401-10.74007 11.089192-4.630449-0.863616-4.43292-6.105027-3.132903-13.092045 1.304611-6.991611 3.224777-13.082857 7.85982-12.214647 4.635043 0.863616 7.322358 7.235077 6.013153 14.2175zM973.694393 184.42786c4.207829 18.278332-2.191195 35.357707-14.277219 38.146083-12.104399 2.792969-17.166656-10.083171-21.374485-28.356909-4.217016-18.278332-5.994778-35.031555 6.109621-37.829118 12.095212-2.792969 25.325067 9.761612 29.542083 28.039944z" fill="#FFFFFF" p-id="2778"></path><path d="M279.742537 216.092233S330.424828 337.471563 235.541958 358.124837c-94.88287 20.653274-119.261635 119.748567-36.244292 126.446181 83.021937 6.697614 177.160627-130.938819 129.799582-225.454193-47.356451-94.506186-54.127565-50.549073-49.354711-43.024592z" fill="#FF8787" p-id="2779"></path><path d="M329.106436 259.121419c-12.591331-25.118351-22.288631-40.392402-29.684489-49.230681 88.649219 129.992517-51.081942 243.355841-51.081941 203.891366 0-39.331258-14.382874-54.954431-14.497717-55.234646l-0.022969 0.004593c-20.97024 43.166997-46.442305 84.050925-64.348547 117.502248 7.699041 4.474264 17.566308 7.529074 29.840674 8.516719 83.012749 6.697614 177.156033-130.938819 129.794989-225.449599z" fill="#E67878" p-id="2780"></path><path d="M308.039728 157.269907S154.00838 102.660003 66.333025 274.018788c-87.670761 171.35419 133.584791 319.859318 167.500077 145.211444 17.538746-90.367263-42.569816-149.235526 9.371147-218.039961 38.090959-50.457199 61.42236-28.641718 64.835479-43.920364z" fill="#E67878" p-id="2781"></path><path d="M274.38169 161.289394s-120.134437-35.716016-188.516253 97.928493c-68.381815 133.649102 104.185112 249.474649 130.631041 113.257669 13.684632-70.481136-33.203262-116.395166 7.308577-170.063361 29.716644-39.345039 47.912289-29.197556 50.576635-41.122801z" fill="#FF8787" p-id="2782"></path><path d="M1026.848094 840.385225a5.879936 5.879936 0 0 0 0.440995-1.759387l-0.009187-0.215904a3.569305 3.569305 0 0 0-0.252654-1.391891c-0.027562-0.073499-0.045937-0.142405-0.078093-0.21131a4.359421 4.359421 0 0 0-0.932521-1.267862l-0.238872-0.206716a9.127682 9.127682 0 0 0-1.534296-1.111675l-0.03675-0.018375a21.1448 21.1448 0 0 0-2.163632-1.065739c-0.151592-0.073499-0.303184-0.133217-0.463964-0.206716a75.860359 75.860359 0 0 0-2.733251-1.084113c-14.015378-5.218443-42.652503-12.889922-64.049957-54.834995-9.196587-18.025678-20.671649-25.857936-31.825152-27.966444-20.203092-10.207201-59.267915-16.895628-100.427465-14.392062-58.95095 3.564711-73.136295 22.008416-72.07515 39.478256 1.061145 17.451466 22.251882 43.001624 81.216612 39.43232 20.841616-1.263267 40.272966-5.682407 56.640319-11.626655l0.08728 0.105655c0.615556 0.863616 1.295423 1.731825 1.979885 2.604628 0.468557 0.592587 0.932521 1.189768 1.433234 1.791543a81.441704 81.441704 0 0 0 4.203236 4.694761c0.679868 0.712023 1.336767 1.433234 2.062571 2.154446 1.437828 1.424047 2.972124 2.857281 4.612074 4.304296 0.565025 0.500713 1.203549 1.015208 1.800731 1.515921 1.272455 1.084113 2.586253 2.177414 3.978144 3.266121 0.70743 0.565025 1.451609 1.120863 2.200382 1.685888 1.479171 1.116269 3.027248 2.237132 4.639637 3.362588 0.679868 0.477745 1.345954 0.95549 2.053384 1.437828a181.03771 181.03771 0 0 0 7.473949 4.837166c46.226401 28.242066 92.691675 20.974833 100.602026 9.293055l0.032156-0.059719a13.872973 13.872973 0 0 0 1.180581-2.113101c0.045937-0.12403 0.12403-0.275622 0.183748-0.431808z" fill="#E67878" p-id="2783"></path><path d="M787.203962 768.861319c0.863616 14.258844 16.734848 17.212593 60.825179 14.534466s79.737441-7.942507 78.883013-22.18757c-0.863616-14.258844-41.857793-26.942049-85.952717-24.27311-44.094925 2.664346-54.637466 17.671963-53.755475 31.926214zM874.906879 837.991907c-10.873287 11.934432-10.790601 45.45466 39.65741 91.382471 50.43423 45.936998 107.258297 50.599603 118.728766 39.225602 17.639807-17.483621-36.455602-7.763353-73.140889-96.720349-30.240326-73.274106-74.390375-45.831343-85.245287-33.887724z" fill="#FF8787" p-id="2784"></path><path d="M936.021461 861.056874s-20.189311 94.777215 94.768027 94.781808c6.353087 4.25836 8.23191 7.078891 2.494379 12.756705-11.470468 11.36022-68.285348 6.702208-118.724171-39.234791-25.338848-23.060373-37.953148-42.978655-42.886782-58.624797l64.348547-9.678925z" fill="#E67878" p-id="2785"></path><path d="M679.003957 769.605498c-7.593386 24.231767 7.928726 69.856393 89.737926 95.530581 81.822981 25.665001 161.399643 11.387782 168.993028-12.834797 7.597979-24.222579-58.698296-73.251137-140.530464-98.916138-81.8092-25.674188-110.607104-8.002225-118.20049 16.220354z" fill="#E67878" p-id="2786"></path><path d="M749.076254 782.150892c-5.673219 18.08999 5.902904 52.138493 66.966955 71.298815 61.059458 19.151135 120.437622 8.502938 126.106248-9.587051 5.668626-18.080802-43.805521-54.65584-104.86498-73.811569-61.050271-19.164916-82.553379-5.980997-88.208223 12.099805zM773.174803 125.136977s-69.222462 149.350368 48.435971 179.742286c117.663027 30.391918 143.378559 155.492145 39.230196 159.869941-104.139175 4.377796-215.242398-172.27293-151.46347-288.181164s70.127421-60.609275 63.797303-51.431063z" fill="#FF8787" p-id="2787"></path><path d="M810.539957 301.466144c-80.784805 75.102398 27.943476 138.683797-43.272652 75.906296-120.171187-105.926124-13.151763-266.292184-13.133388-266.319747-10.101546 9.265493-24.539544 28.788717-44.742636 65.510753-63.792709 115.912827 47.319702 292.563554 151.46347 288.185758 16.661349-0.702836 29.955516-4.511013 40.116781-10.514979 0.826866-43.488556-20.143374-98.948294-34.020941-130.699947-8.149223-4.823385-46.704146-18.434517-56.410634-22.068134z" fill="#E67878" p-id="2788"></path><path d="M740.614659 50.213733s195.264398-60.866523 296.647352 157.637402c101.392142 218.503925-182.457163 393.565231-216.450541 173.531605-17.584683-113.850256 60.407153-184.570265-1.221924-273.123017-45.197412-64.931947-75.442332-38.780014-78.974887-58.04599z" fill="#E67878" p-id="2789"></path><path d="M768.668383 47.953632s156.709475-48.853998 238.091462 126.519681c81.368205 175.373678-146.442556 315.885768-173.733727 139.276384-14.107252-91.373283 48.495689-148.133038-0.978458-219.206761-36.281041-52.110931-60.544964-31.117723-63.379277-46.589304z" fill="#FF8787" p-id="2790"></path><path d="M275.327992 711.986721s-3.647398 20.588963 48.34869 81.055834c61.146738 71.105879 153.576572 164.955167 302.885598 96.701974 0 0 39.106167-6.403618 12.798047-32.702549-26.317306-26.317306-34.13119-52.611644-34.131189-69.677238s-94.901244 6.693021-144.219206-26.413774c-62.561598-42.000197-179.99494-71.712248-185.68194-48.964247z" fill="#F0F0FF" p-id="2791"></path><path d="M488.172479 431.610253m-27.562199 0a27.562199 27.562199 0 1 0 55.124398 0 27.562199 27.562199 0 1 0-55.124398 0Z" fill="#6E6E96" p-id="2792"></path><path d="M605.311824 431.610253m-27.562199 0a27.562199 27.562199 0 1 0 55.124398 0 27.562199 27.562199 0 1 0-55.124398 0Z" fill="#6E6E96" p-id="2793"></path><path d="M121.792763 235.94161s-32.155899 27.562199-32.155899 87.280296 30.470011 38.541141 41.003365-9.527333c24.489014-111.76931-8.847466-77.752963-8.847466-77.752963zM977.185605 288.153602s38.003679-55.069273 2.898625-103.376621c-65.34538-89.903299-46.782239-11.23619-43.993863 37.89343 5.861561 103.528213 41.095239 65.483191 41.095238 65.483191z" fill="#FFFFFF" opacity=".31" p-id="2794"></path><path d="M825.720275 816.784271a35.601174 10.335825 19.426 1 0 6.875166-19.49485 35.601174 10.335825 19.426 1 0-6.875166 19.49485Z" fill="#FFFFFF" opacity=".3" p-id="2795"></path><path d="M253.797439 865.186166a10.331231 35.601174 73.375 1 0-5.911664-19.798726 10.331231 35.601174 73.375 1 0 5.911664 19.798726Z" fill="#FFFFFF" opacity=".3" p-id="2796"></path><path d="M609.905524 562.732821c0 17.87868-36.506132 19.412975-81.538172 19.412975s-81.538172-1.534296-81.538171-19.412975 36.506132-32.358021 81.538171-32.358022 81.538172 14.479342 81.538172 32.358022z" fill="#FFFFFF" opacity=".33" p-id="2797"></path><path d="M440.701185 806.336722c-8.199754 13.565196-32.064025 0.744179-60.632244-16.509757-28.563625-17.263124-51.008443-32.431521-42.808688-46.005904 8.204348-13.569789 38.003679-10.579291 66.567304 6.67924 28.563625 17.276905 45.077976 42.266632 36.873628 55.836421z" fill="#FFFFFF" opacity=".84" p-id="2798"></path></svg>