<?xml version="1.0" standalone="no"?><!DOCTYPE svg PUBLIC "-//W3C//DTD SVG 1.1//EN" "http://www.w3.org/Graphics/SVG/1.1/DTD/svg11.dtd"><svg t="1646728518888" class="icon" viewBox="0 0 1024 1024" version="1.1" xmlns="http://www.w3.org/2000/svg" p-id="9821" xmlns:xlink="http://www.w3.org/1999/xlink" width="16" height="16"><defs><style type="text/css"></style></defs><path d="M904.338286 680.813714v221.476572a52.955429 52.955429 0 0 1-52.662857 52.955428H172.324571A52.662857 52.662857 0 0 1 120.246857 902.290286v-221.476572a78.994286 78.994286 0 0 1 79.286857-78.994285H825.344a78.994286 78.994286 0 0 1 78.994286 78.994285z" fill="#BAD4FF" p-id="9822"></path><path d="M888.539429 618.788571H135.168l3.803429-22.820571C194.852571 250.733714 351.670857 0 512 0s316.854857 250.733714 372.736 595.968zM181.686857 579.584h660.333714C787.309714 270.043429 646.875429 39.204571 512 39.204571S237.275429 270.043429 181.686857 579.584zM227.328 946.468571a19.602286 19.602286 0 0 1-19.309714-19.602285v-127.561143a19.602286 19.602286 0 1 1 39.204571 0v127.561143a19.602286 19.602286 0 0 1-19.894857 19.602285zM796.379429 946.468571a19.602286 19.602286 0 0 1-19.602286-19.602285v-127.561143a19.602286 19.602286 0 1 1 39.204571 0v127.561143a19.602286 19.602286 0 0 1-19.602285 19.602285z" fill="#4E8CEE" p-id="9823"></path><path d="M884.736 1024H139.264A77.531429 77.531429 0 0 1 61.732571 946.468571v-260.388571a106.496 106.496 0 0 1 106.496-106.496h687.542858a106.496 106.496 0 0 1 106.496 106.496v260.388571A77.531429 77.531429 0 0 1 884.736 1024zM168.228571 618.788571a67.291429 67.291429 0 0 0-67.291428 67.291429v260.388571a38.034286 38.034286 0 0 0 38.326857 38.326858h745.472a38.326857 38.326857 0 0 0 38.326857-38.326858v-260.388571a67.291429 67.291429 0 0 0-67.291428-67.291429z" fill="#4E8CEE" p-id="9824"></path><path d="M829.44 633.124571H196.022857C245.467429 326.802286 383.561143 98.011429 512.877714 98.011429s267.117714 228.790857 316.562286 535.113142z" fill="#BAD4FF" p-id="9825"></path><path d="M654.774857 668.233143l-142.482286 263.314286-142.189714-260.388572c42.422857 65.828571 90.404571 103.277714 141.897143 103.277714s99.766857-39.497143 142.774857-106.203428z" fill="#FBFCFC" p-id="9826"></path><path d="M727.917714 507.904c0 2.925714-2.048 6.144-3.218285 9.069714q-12.288 35.401143-26.331429 66.706286c-1.755429 4.388571-3.803429 8.777143-5.851429 13.165714l-37.449142 68.754286c-43.008 66.998857-91.282286 104.740571-142.774858 104.740571s-99.474286-37.156571-141.897142-103.277714l-38.619429-70.217143-6.729143-16.384c-7.606857-18.432-15.798857-37.741714-23.113143-58.514285-2.340571-5.266286-4.388571-11.117714-6.436571-16.969143 3.510857-1.462857 7.021714-3.218286 10.825143-4.388572a528.384 528.384 0 0 1 418.084571 6.144z" fill="#FBFCFC" p-id="9827"></path><path d="M722.944 505.856a571.392 571.392 0 0 0-148.333714-41.252571c-7.021714 0-13.458286-1.755429-20.187429-2.340572s-12.580571 0-18.724571-1.462857-12.580571 0-18.724572 0h-29.257143c-9.654857 0-19.602286 0-29.257142 1.755429a521.069714 521.069714 0 0 0-158.866286 39.204571 26.916571 26.916571 0 0 0-2.340572 7.899429 105.910857 105.910857 0 0 0 3.803429 10.24c7.314286 21.065143 15.506286 40.374857 23.113143 58.514285l5.266286 11.117715a100.937143 100.937143 0 0 0 32.475428 14.921142 198.948571 198.948571 0 0 0 58.514286 7.899429 97.133714 97.133714 0 0 0 55.003428-14.921143c8.192-4.973714 15.506286-10.825143 23.990858-16.091428a24.283429 24.283429 0 0 1 25.453714 0 148.626286 148.626286 0 0 1 17.261714 11.702857A92.452571 92.452571 0 0 0 588.361143 614.4a200.996571 200.996571 0 0 0 71.094857-5.558857 117.028571 117.028571 0 0 0 33.060571-14.336l4.096-9.654857q14.043429-31.305143 26.331429-66.706286c0-2.925714 2.048-6.144 3.218286-9.069714zM412.818286 554.130286a93.622857 93.622857 0 0 1-55.881143-23.113143 93.622857 93.622857 0 0 1 55.881143-23.113143 92.16 92.16 0 0 1 55.296 23.113143 92.16 92.16 0 0 1-55.296 23.113143z m210.066285 0a92.745143 92.745143 0 0 1-55.881142-23.113143 92.745143 92.745143 0 0 1 55.881142-23.113143 92.452571 92.452571 0 0 1 55.588572 23.113143 92.452571 92.452571 0 0 1-55.588572 23.113143z" fill="#4E8CEE" p-id="9828"></path><path d="M781.750857 553.545143a19.309714 19.309714 0 0 1-8.777143-2.048l-52.662857-24.868572a19.309714 19.309714 0 0 1-9.069714-25.746285 19.602286 19.602286 0 0 1 25.746286-9.947429c20.187429 9.069714 37.741714 17.846857 54.125714 26.624a19.602286 19.602286 0 0 1 7.899428 26.331429 19.309714 19.309714 0 0 1-17.261714 9.654857zM239.908571 553.545143a19.017143 19.017143 0 0 1-16.384-9.069714 19.894857 19.894857 0 0 1 4.973715-26.624 354.304 354.304 0 0 1 58.514285-31.305143 19.602286 19.602286 0 0 1 17.554286 35.108571l-54.125714 29.257143a19.602286 19.602286 0 0 1-10.532572 2.633143z" fill="#4E8CEE" p-id="9829"></path><path d="M512 789.942857c-58.514286 0-110.299429-37.741714-158.573714-112.347428l-39.204572-71.094858a8.777143 8.777143 0 0 0 0-2.340571l-6.144-13.750857a10.532571 10.532571 0 0 1 0-2.633143c-8.484571-19.309714-16.384-38.619429-23.698285-58.514286a60.854857 60.854857 0 0 1-3.510858-9.362285l-2.633142-7.021715a19.309714 19.309714 0 0 1 11.117714-24.576l3.218286-1.462857h2.048l7.021714-2.633143a526.628571 526.628571 0 0 1 157.988571-38.912c9.947429 0 19.894857 0 29.257143-1.755428s20.187429 0 29.257143 0h19.894857l19.017143 1.462857 21.065143 2.340571a597.138286 597.138286 0 0 1 153.307428 42.715429H734.646857a19.602286 19.602286 0 0 1 12.288 25.746286v3.218285l-2.340571 6.144c-7.314286 21.357714-16.384 44.470857-26.624 67.291429v2.048l-3.510857 8.192v1.755428l-38.034286 70.509715C622.884571 752.201143 569.051429 789.942857 512 789.942857z m-170.861714-219.428571l3.510857 7.606857 3.510857 7.899428 38.619429 70.509715c26.916571 41.837714 71.094857 93.037714 124.635428 93.037714s98.304-52.077714 126.390857-95.670857L676.132571 585.142857l3.218286-7.899428v-2.340572c8.192-18.432 15.506286-36.864 21.942857-55.003428a561.737143 561.737143 0 0 0-131.072-35.108572l-19.602285-2.340571h-65.243429c-10.24 0-18.724571 0-27.794286 1.755428a493.568 493.568 0 0 0-138.386285 31.012572v1.462857c5.851429 18.432 14.043429 35.693714 21.942857 54.125714z" fill="#4E8CEE" p-id="9830"></path><path d="M512.292571 949.686857a19.309714 19.309714 0 0 1-17.261714-10.24L354.304 679.058286a19.602286 19.602286 0 0 1 33.645714-20.187429c29.257143 43.008 71.972571 94.500571 125.513143 94.500572 42.715429 0 85.430857-32.182857 126.390857-95.963429a19.894857 19.894857 0 0 1 26.624-6.144 19.309714 19.309714 0 0 1 7.021715 26.331429l-142.482286 263.314285a19.602286 19.602286 0 0 1-17.261714 10.24z m-60.854857-172.032l60.854857 111.469714 60.854858-111.762285a130.779429 130.779429 0 0 1-121.709715 0.292571z" fill="#4E8CEE" p-id="9831"></path></svg>